<svg xmlns="http://www.w3.org/2000/svg"  viewBox="0 0 24 24" width="24px" height="24px"><path d="M4 4H20V20H4z" opacity=".3"/><path d="M16.998,15.117l-1.468,0.02c0,0-0.317,0.062-0.731-0.224c-0.549-0.377-1.067-1.359-1.471-1.231c-0.409,0.13-0.397,1.014-0.397,1.014s0.003,0.156-0.09,0.257c-0.101,0.109-0.3,0.098-0.3,0.098h-0.658c0,0-1.45,0.12-2.729-1.212C7.76,12.386,6.53,9.518,6.53,9.518S6.459,9.337,6.536,9.245C6.623,9.142,6.859,9.14,6.859,9.14l1.571-0.008c0,0,0.148,0.026,0.255,0.104C8.772,9.3,8.822,9.421,8.822,9.421s0.254,0.644,0.591,1.227c0.657,1.136,0.962,1.385,1.185,1.263c0.325-0.178,0.228-1.606,0.228-1.606s0.006-0.519-0.163-0.75c-0.133-0.18-0.38-0.233-0.489-0.247c-0.089-0.012,0.056-0.218,0.244-0.31c0.283-0.138,0.783-0.146,1.373-0.141c0.46,0.005,0.592,0.033,0.772,0.077c0.542,0.131,0.358,0.637,0.358,1.851c0,0.389-0.07,0.936,0.21,1.116c0.121,0.078,0.416,0.012,1.151-1.241c0.35-0.594,0.611-1.292,0.611-1.292s0.057-0.124,0.146-0.178c0.091-0.055,0.214-0.038,0.214-0.038l1.654-0.01c0,0,0.497-0.06,0.578,0.166c0.085,0.236-0.185,0.787-0.861,1.688c-1.109,1.481-1.233,1.343-0.311,2.199c0.88,0.818,1.062,1.216,1.092,1.266C17.766,15.069,16.998,15.117,16.998,15.117z"/><path d="M19,3H5C3.895,3,3,3.895,3,5v14c0,1.105,0.895,2,2,2h14c1.105,0,2-0.895,2-2V5C21,3.895,20.105,3,19,3z M19,19H5V5h14V19z"/></svg>